<?xml version="1.0" standalone="no"?>
<!DOCTYPE svg PUBLIC "-//W3C//DTD SVG 20010904//EN"
 "http://www.w3.org/TR/2001/REC-SVG-20010904/DTD/svg10.dtd">
<svg version="1.0" xmlns="http://www.w3.org/2000/svg"
 width="54.000000pt" height="54.000000pt" viewBox="0 0 54.000000 54.000000"
 preserveAspectRatio="xMidYMid meet">

<g transform="translate(0.000000,54.000000) scale(0.100000,-0.100000)"
fill="#000000" stroke="none">
<path d="M0 270 l0 -270 270 0 270 0 0 270 0 270 -270 0 -270 0 0 -270z m214
21 c3 -5 -2 -8 -11 -7 -9 0 -18 -5 -21 -13 -3 -10 1 -12 17 -8 11 3 21 1 21
-4 0 -12 -37 -11 -45 1 -7 11 12 40 26 40 4 0 10 -4 13 -9z m45 -30 c-1 -11
-3 -10 -7 4 l-5 20 -8 -20 c-6 -17 -8 -16 -8 9 -1 24 1 27 14 16 8 -7 14 -20
14 -29z m149 23 c6 -11 12 -13 16 -6 9 15 36 4 30 -12 -2 -6 -22 -12 -44 -13
-36 -1 -40 1 -40 23 0 28 24 33 38 8z m-291 -16 c-3 -8 -6 -5 -6 6 -1 11 2 17
5 13 3 -3 4 -12 1 -19z m183 -2 c0 -7 -7 -13 -15 -13 -15 0 -20 18 -9 30 9 9
24 -2 24 -17z m59 -4 c-1 -15 -2 -15 -6 1 -2 9 -9 14 -15 11 -7 -4 -8 -2 -4 5
10 15 26 4 25 -17z m-268 -5 c-10 -9 -11 -8 -5 6 3 10 9 15 12 12 3 -3 0 -11
-7 -18z m226 1 c-3 -8 -6 -5 -6 6 -1 11 2 17 5 13 3 -3 4 -12 1 -19z m159 -5
c-10 -10 -19 5 -10 18 6 11 8 11 12 0 2 -7 1 -15 -2 -18z"/>
<path d="M380 276 c0 -9 5 -16 10 -16 6 0 10 4 10 9 0 6 -4 13 -10 16 -5 3
-10 -1 -10 -9z"/>
</g>
</svg>
